# xmcd
#
# Track frame offsets:
#	150
#	18783
#	30122
#	42724
#	53672
#	67308
#	85946
#	104674
#	117647
#	130521
#	145996
#	157478
#
# Disc length: 2380 seconds
#
# Revision: 0
# Processed by: cddbd v1.5.1PL0 Copyright (c) Steve Scherf et al.
# Submitted via: dBpowerAMP V4.0
#
DISCID=ac094a0c
DTITLE=Silvertones - Ride In My Cadillac
DYEAR=2005
DGENRE=Blues
TTITLE0=Ride In My Cadillac
TTITLE1=But, Officer
TTITLE2=Down By The Coast
TTITLE3=Don't Seem To Listen
TTITLE4=She Told Me
TTITLE5=Let Me Be
TTITLE6=Cayetano
TTITLE7=My Baby Ain't There
TTITLE8=Texas Girl
TTITLE9=I'm Tired Of Crying Over You
TTITLE10=Worlds Apart
TTITLE11=People Think I'm Crazy
EXTD=
EXTT0=
EXTT1=
EXTT2=
EXTT3=
EXTT4=
EXTT5=
EXTT6=
EXTT7=
EXTT8=
EXTT9=
EXTT10=
EXTT11=
PLAYORDER=
